<?xml version="1.0" encoding="UTF-8"?>
<!DOCTYPE svg PUBLIC "-//W3C//DTD SVG 1.1//EN" "http://www.w3.org/Graphics/SVG/1.1/DTD/svg11.dtd">
<!-- Creator: CorelDRAW X5 -->
<svg xmlns="http://www.w3.org/2000/svg" xml:space="preserve" width="135.467mm" height="35.7292mm" style="shape-rendering:geometricPrecision; text-rendering:geometricPrecision; image-rendering:optimizeQuality; fill-rule:evenodd; clip-rule:evenodd"
viewBox="0 0 13547 3573"
 xmlns:xlink="http://www.w3.org/1999/xlink"
 xmlns:svg="http://www.w3.org/2000/svg">
 <defs>
  <style type="text/css">
   <![CDATA[
    .fil0 {fill:#F90C00;fill-rule:nonzero}
   ]]>
  </style>
 </defs>
 <g id="Layer_x0020_1">
  <metadata id="CorelCorpID_0Corel-Layer"/>
 </g>
 <g id="Layer_x0020_1_0">
  <metadata id="CorelCorpID_1Corel-Layer"/>
  <polygon class="fil0" points="1492,2 0,2 0,3571 "/>
  <polygon class="fil0" points="2543,2 4033,2 4033,3571 "/>
  <polygon class="fil0" points="2017,1317 2967,3571 2344,3571 2060,2854 1365,2854 "/>
  <path class="fil0" d="M6468 2272l176 505c6,13 15,18 30,18l338 0c18,0 21,-9 18,-27l-699 -1942c-3,-16 -6,-18 -21,-18l-420 0c-12,0 -18,9 -18,21 -6,102 -15,133 -27,163l-623 1773c-3,21 4,30 21,30l302 0c18,0 27,-6 34,-24l166 -499 722 0zm-626 -330l0 0c91,-276 212,-630 261,-832l3 0c60,212 202,632 266,832l-530 0z"/>
  <path class="fil0" d="M7930 2825c182,0 375,-33 572,-118 16,-6 19,-13 19,-27 -6,-54 -13,-133 -13,-193l0 -1828c0,-12 0,-18 -15,-18l-330 0c-13,0 -18,6 -18,21l0 619c-52,-6 -87,-9 -130,-9 -532,0 -859,351 -859,789 0,509 335,762 774,762zm215 -338l0 0c-54,18 -115,24 -176,24 -241,0 -439,-136 -439,-467 0,-293 203,-466 473,-466 54,0 102,6 142,21l0 887z"/>
  <path class="fil0" d="M9571 1273c-454,0 -735,348 -735,778 0,384 224,774 728,774 427,0 726,-314 726,-784 0,-414 -254,-768 -719,-768zm-18 305l0 0c257,0 366,221 366,473 0,311 -160,466 -347,466 -230,0 -367,-193 -367,-473 0,-287 145,-466 348,-466z"/>
  <path class="fil0" d="M10632 641c-13,0 -21,6 -21,21l0 2069c0,9 9,24 21,27 145,45 297,66 453,66 448,0 884,-278 884,-838 0,-405 -278,-714 -714,-714 -100,0 -193,16 -275,43l-4 -650c0,-21 -6,-24 -27,-24l-317 0zm965 1383l0 0c0,335 -229,493 -477,493 -52,0 -97,-3 -139,-16l0 -883c48,-18 105,-34 211,-34 239,0 405,152 405,439z"/>
  <path class="fil0" d="M13199 2133c148,0 269,-3 311,-13 16,-3 21,-9 24,-21 9,-33 13,-102 13,-187 0,-288 -173,-639 -620,-639 -457,0 -711,372 -711,792 0,372 196,759 747,759 206,0 339,-33 454,-87 12,-6 18,-16 18,-33l0 -252c0,-15 -9,-18 -18,-12 -115,49 -239,73 -375,73 -308,0 -448,-170 -457,-381l614 0zm-614 -261l0 0c24,-148 118,-308 327,-308 230,0 291,193 291,281 0,3 0,16 0,24 -13,3 -52,3 -166,3l-451 0z"/>
 </g>
</svg>
