<svg width="70" height="70" viewBox="0 0 70 70" fill="none" xmlns="http://www.w3.org/2000/svg">
<circle cx="35" cy="35" r="35" fill="white"/>
<path d="M55.6557 33.0065C53.2794 29.9596 50.2012 27.4393 46.7542 25.7183C43.2355 23.9615 39.4501 23.05 35.4985 23.0022C35.3896 22.9993 34.9526 22.9993 34.8438 23.0022C30.8923 23.0501 27.1068 23.9615 23.5881 25.7183C20.1411 27.4393 17.0631 29.9595 14.6866 33.0065C13.7711 34.1802 13.7711 35.8198 14.6866 36.9935C17.063 40.0404 20.1411 42.5607 23.5881 44.2817C27.1068 46.0385 30.8922 46.95 34.8438 46.9978C34.9526 47.0007 35.3896 47.0007 35.4985 46.9978C39.45 46.9499 43.2355 46.0385 46.7542 44.2817C50.2012 42.5607 53.2793 40.0405 55.6557 36.9935C56.5712 35.8196 56.5712 34.1802 55.6557 33.0065ZM24.3576 42.7406C21.1389 41.1335 18.2644 38.7799 16.0449 35.9341C15.6159 35.3841 15.6159 34.6159 16.0449 34.0659C18.2644 31.2201 21.1388 28.8665 24.3576 27.2594C25.2717 26.8031 26.2053 26.4085 27.1561 26.0744C24.71 28.2732 23.1689 31.4598 23.1689 35C23.1689 38.5403 24.7101 41.7272 27.1564 43.9259C26.2056 43.5918 25.2718 43.197 24.3576 42.7406ZM35.1712 45.2798C29.5028 45.2798 24.8913 40.6683 24.8913 34.9999C24.8913 29.3315 29.5028 24.7201 35.1712 24.7201C40.8396 24.7201 45.4511 29.3316 45.4511 35C45.4511 40.6684 40.8396 45.2798 35.1712 45.2798ZM54.2976 35.9341C52.0781 38.7798 49.2036 41.1335 45.9849 42.7405C45.0718 43.1963 44.1388 43.5892 43.1892 43.923C45.6336 41.7243 47.1736 38.5387 47.1736 34.9999C47.1736 31.4592 45.6321 28.2722 43.1856 26.0734C44.1366 26.4076 45.0705 26.8027 45.9849 27.2593C49.2036 28.8663 52.0781 31.2199 54.2976 34.0657C54.7265 34.6158 54.7265 35.384 54.2976 35.9341Z" fill="black"/>
<path d="M35.1712 30.6007C32.7454 30.6007 30.772 32.5742 30.772 34.9999C30.772 37.4257 32.7454 39.3991 35.1712 39.3991C37.5969 39.3991 39.5704 37.4257 39.5704 34.9999C39.5705 32.5742 37.597 30.6007 35.1712 30.6007ZM35.1712 37.6767C33.6952 37.6767 32.4944 36.476 32.4944 34.9999C32.4944 33.5239 33.6951 32.3232 35.1712 32.3232C36.6471 32.3232 37.8479 33.5239 37.8479 34.9999C37.848 36.476 36.6471 37.6767 35.1712 37.6767Z" fill="black"/>
</svg>
