<?xml version="1.0" encoding="UTF-8"?>
<!DOCTYPE svg PUBLIC "-//W3C//DTD SVG 1.1//EN" "http://www.w3.org/Graphics/SVG/1.1/DTD/svg11.dtd">
<!-- Creator: CorelDRAW 2019 (64-Bit) -->
<svg xmlns="http://www.w3.org/2000/svg" xml:space="preserve" width="1458px" height="480px" version="1.1" style="shape-rendering:geometricPrecision; text-rendering:geometricPrecision; image-rendering:optimizeQuality; fill-rule:evenodd; clip-rule:evenodd"
viewBox="0 0 1458 480.02"
 xmlns:xlink="http://www.w3.org/1999/xlink"
 xmlns:xodm="http://www.corel.com/coreldraw/odm/2003">
 <defs>
  <style type="text/css">
   <![CDATA[
    .fil0 {fill:#EE4E2C;fill-rule:nonzero}
   ]]>
  </style>
 </defs>
 <g id="Layer_x0020_1">
  <metadata id="CorelCorpID_0Corel-Layer"/>
  <g id="_1667956328768">
   <path class="fil0" d="M390.33 128.49l-97.51 0c-10.96,-97.7 -57.84,-130.2 -95.23,-128.42 -42.05,2.1 -84.55,46.84 -86.24,128.42l-97.65 0c-7.58,0 -13.7,6.12 -13.7,13.7l18.12 275.2c0,7.57 20.32,42.31 52.28,42.09l264.79 0c46.38,-7.22 52.22,-46.07 52.22,-53.65l16.62 -263.64c0,-7.58 -6.12,-13.7 -13.7,-13.7zm-191.6 -105.64l0 0c27.16,-1.28 61.54,25.66 71.08,105.64l-135.64 0c1.56,-66.61 34.02,-104.09 64.56,-105.64zm27.57 378.37l0 0c-31.63,6.07 -72.31,-4.47 -94.45,-28.26 -10,-10.72 6.11,-26.93 16.16,-16.11 14.88,16.02 41.41,23.51 63.05,23.01 27.57,-0.6 52.13,-25.71 36.47,-53.74 -21.68,-38.8 -75.14,-27.94 -102.63,-58.43 -22.23,-24.61 -11.68,-63.32 14.43,-80.49 27.21,-17.9 74.19,-17.21 96.56,8.45 9.63,11 -6.49,27.21 -16.16,16.11 -18.08,-20.72 -60.77,-17.89 -77.07,3.43 -23.19,30.45 11.51,46.84 35.75,54.19 33.33,10.09 70.31,28.53 76.38,66.74 4.84,30.77 -18.99,59.4 -48.49,65.1z"/>
   <path class="fil0" d="M1057.8 263.8c-21.39,0 -40.64,9.1 -53.83,23.53l0 -16.74c0,-15.13 -24.24,-15.18 -24.24,0l0 198.02c0,15.19 24.24,15.23 24.24,0l0 -88.16c13.24,14.42 32.44,23.48 53.83,23.48 39.71,0 72.01,-31.4 72.01,-70.06 0,-38.62 -32.3,-70.07 -72.01,-70.07zm0 114.81l0 0c-25.41,0 -46.02,-20.09 -46.02,-44.74 0,-22.21 16.73,-40.74 38.65,-44.18 0.1,0 0.24,-0.05 0.39,-0.05 2.28,-0.33 4.6,-0.52 6.98,-0.52 18.77,0 34.96,10.98 42.09,26.73 0,0.05 0.05,0.14 0.05,0.19 2.47,5.47 3.83,11.51 3.83,17.83 0,24.65 -20.61,44.74 -45.97,44.74zm-178.84 25.33c-39.73,0 -72.06,-31.43 -72.06,-70.07 0,-38.63 32.33,-70.06 72.06,-70.06 39.74,0 72.06,31.43 72.06,70.06 0,38.64 -32.32,70.07 -72.06,70.07zm0 -114.81l0 0c-25.37,0 -46.01,20.08 -46.01,44.74 0,24.67 20.64,44.74 46.01,44.74 25.37,0 46.02,-20.07 46.02,-44.74 0,-24.66 -20.65,-44.74 -46.02,-44.74zm579.04 43.36c-0.58,-32.21 -17.55,-61.3 -52.66,-67.75 -30.26,-5.57 -65.61,9.94 -78.51,37.48 -13.38,28.62 -7.76,67.89 18.62,87.83 28.56,21.55 73.13,14.9 102.41,-1.03 13.63,-7.4 1.41,-27.77 -12.27,-20.37 -18.57,10.14 -42.81,15.09 -63.62,8.34 -15.56,-5.04 -24.29,-18.1 -26.91,-32.72l100.82 0c6.44,0 12.22,-5.42 12.12,-11.78zm-112.07 -11.79l0 0c0.2,-0.9 0.44,-1.74 0.68,-2.59 5.82,-19.19 25.66,-30.32 45.73,-30.84 23.08,-0.61 36.03,14.85 40.06,33.43l-86.47 0zm-49.31 11.99c-0.58,-32.21 -17.55,-61.3 -52.66,-67.76 -30.26,-5.56 -65.61,9.95 -78.51,37.49 -13.38,28.62 -7.76,67.89 18.62,87.83 28.56,21.55 73.13,14.9 102.42,-1.03 13.62,-7.41 1.4,-27.77 -12.27,-20.37 -18.58,10.13 -42.82,15.09 -63.62,8.34 -15.57,-5.04 -24.3,-18.1 -26.92,-32.72l100.82 0c6.45,0 12.22,-5.42 12.12,-11.78zm-112.06 -11.79l0 0c0.19,-0.9 0.43,-1.74 0.68,-2.59 5.82,-19.19 25.65,-30.32 45.72,-30.84 23.09,-0.61 36.03,14.85 40.06,33.43l-86.46 0zm-406.07 -10.92l0 81.85c0,15.44 -24.25,15.44 -24.25,0l0 -80.25c-0.82,-15.88 -14.34,-23.16 -14.78,-23.35 -17.26,-7.5 -48.6,-4.06 -67.27,19.66l0 83.94c0,15.44 -24.24,15.44 -24.24,0l0 -210.25c0,-15.43 24.24,-15.38 24.24,0l0 94.44c29.73,-19.88 67.54,-17.67 85.3,-5.48 0,0 21.36,11.69 21,39.44zm-170.3 -118.73c-23.78,-26.27 -73.64,-26.97 -102.58,-8.63 -27.7,17.55 -38.91,57.21 -15.33,82.4 29.22,31.21 85.99,20.08 109.02,59.79 16.66,28.7 -9.43,54.4 -38.72,55.02 -22.98,0.49 -51.16,-7.18 -66.98,-23.59 -10.65,-11.03 -27.76,5.52 -17.15,16.53 23.48,24.35 66.73,35.14 100.3,28.9 31.34,-5.83 56.65,-35.15 51.49,-66.64 -6.4,-39.1 -45.69,-57.98 -81.1,-68.3 -25.78,-7.5 -62.62,-24.3 -37.96,-55.45 17.31,-21.85 62.64,-24.75 81.86,-3.51 10.28,11.35 27.37,-5.24 17.15,-16.52z"/>
  </g>
 </g>
</svg>
