<?xml version="1.0" encoding="utf-8"?>
<!-- Generator: Adobe Illustrator 19.2.1, SVG Export Plug-In . SVG Version: 6.00 Build 0)  -->
<svg version="1.1" id="layer" xmlns="http://www.w3.org/2000/svg" xmlns:xlink="http://www.w3.org/1999/xlink" x="0px" y="0px"
	 viewBox="0 0 652 652" style="enable-background:new 0 0 652 652;" xml:space="preserve">
<style type="text/css">
	.st0{fill:#E8340E;}
</style>
<g>
	<path class="st0" d="M625.1,317.6c-0.9-0.3-1.8-0.6-3-0.6c-4.1,0-7,2.3-9.5,5.8v-0.6c0-2.2-0.5-3.5-1.4-5.1l-7.2,1.9
		c1,2.2,1.3,4.9,1.3,9.5v26.6h7.9v-24.8c0.3-2,1-2.9,2.2-4.1c1.4-1.3,3.2-1.6,4.9-1.6c0.8,0,1.4,0.2,2.3,0.4L625.1,317.6z
		 M599.1,338.6V337c-0.1-8.3-1.6-12.8-4.6-15.9c-2.5-2.6-6.3-4-10.4-4c-4.6,0-8.3,1.6-11.3,5.1c-3,3.3-4.6,7.9-4.6,14.3
		c0,12,6.5,19.5,17,19.5c4.9,0,9.5-1.7,13.3-4.9l-3-4.7c-2.8,2.3-5.9,3.5-9.2,3.5c-3.5,0-6.2-1.3-7.9-3.9c-1-1.6-1.6-4.4-1.6-6.9
		v-0.6H599.1z M565.5,355l-1.4-4.8c-1.2,0.2-2,0.1-2.5-0.5c-0.6-0.7-0.9-2.4-0.9-5.9v-32c0-4.8,0-8-0.6-10.6l-8,1.8
		c0.7,2.9,0.8,5.5,0.8,10.8v32c0,4,0.7,6.2,1.7,7.6c1.3,1.8,3.5,2.6,6.1,2.6C562.4,355.9,563.9,355.7,565.5,355 M526.8,307.1
		c0-2.9-2.4-5.3-5.3-5.3c-2.8,0-5.3,2.4-5.3,5.3c0,2.9,2.4,5.3,5.2,5.3C524.4,312.4,526.8,310.1,526.8,307.1 M547.4,355l-1.4-4.8
		c-0.2,0-0.7,0.1-0.9,0.1c-1.5,0-2.4-0.7-2.4-3.6v-34.9c0-4.8,0-8-0.6-10.6l-8,1.8c0.7,2.9,0.8,5.5,0.8,10.8v33.5
		c0,5.5,3.1,8.7,7.6,8.7C544.5,355.9,545.9,355.7,547.4,355 M525.4,355.1v-37.9l-7.9,1.3v36.6H525.4z M509.3,355.1l-4.4-50.6h-10.8
		l-9.9,37.5l-10.2-37.5h-11.1l-4.7,50.6h7.4l3.5-42.5l11.5,42.5h6.1l11.7-41.8l3.3,41.8H509.3z M449.1,355.1v-27.5
		c0-6.9-4.1-10.3-9.9-10.3c-3.8,0-7.2,1.5-11.2,4.9c0-1.8-0.4-3.4-1.3-5.1l-7.2,2c1.1,2.6,1.3,4.5,1.3,8.6v27.3h7.8v-26.9
		c2.4-2.5,6-4.4,8.6-4.4c3,0,4.3,1.5,4.3,6.6v24.7H449.1z M414.4,351.7c-2.7-1.7-3.3-3.2-3.3-7.5c0-0.4,0.1-0.7,0.1-1.1l0.2-11v-2.4
		c0-3.7-0.2-4.9-0.7-6.4c-1.4-4-5.5-6.1-11.1-6.1c-3.3,0-6.6,0.6-10,2.1c-2.1,1-3.8,1.6-5.9,3l3.5,5.5c1.6-1.1,2.6-1.7,4.4-2.5
		c2.6-1.2,4.8-1.7,6.8-1.7c2.1,0,3.4,0.5,4.3,1.6c0.8,1,1,2.4,1,5v2.1c-1.1-0.1-1.6-0.1-2.4-0.1c-12.1,0-18.7,4.4-18.7,13.1
		c0,2.8,0.9,6.1,2.9,8c2.1,1.9,4.9,3,9.3,3c3.3,0,5.7-0.8,7.9-2.3c0.8-0.7,1.3-1.1,2.4-2.2c0.8,2.3,2.8,4.1,5.2,5L414.4,351.7z
		 M376,355.1v-27.2c0-4.1-0.9-6.6-2.9-8.4c-1.5-1.5-4.1-2.2-6.8-2.2c-4,0-8.3,2.1-11.3,5.5c-1.6-3.5-4.9-5.5-8.7-5.5
		c-3.5,0-7.4,1.9-10,4.7c-0.2-1.8-0.7-3.4-1.4-4.6l-7.1,1.8c1,2.4,1.3,3.8,1.3,9.2v26.8h7.5v-27.4c3-2.7,5.5-3.8,7.8-3.8
		c3.2,0,4.1,1.6,4.1,5.9v25.3h7.6v-26.8c3.1-3.1,5.8-4.6,8.1-4.6c2.8,0,3.9,1.6,3.9,5.4v26H376z M325.6,317.6
		c-0.8-0.3-1.8-0.6-3-0.6c-3.8,0-6.9,2.3-9.3,5.8v-0.6c0-2.2-0.6-3.5-1.3-5.1l-7.3,1.9c0.9,2.2,1.3,4.9,1.3,9.5v26.6h7.9v-24.8
		c0.3-2,0.9-2.9,2.1-4.1c1.4-1.3,3.2-1.6,4.9-1.6c1,0,1.4,0.2,2.3,0.4L325.6,317.6z M299.6,338.6V337c-0.1-8.3-1.6-12.8-4.7-15.9
		c-2.5-2.6-6.2-4-10.3-4c-4.7,0-8.4,1.6-11.4,5.1c-2.9,3.3-4.5,7.9-4.5,14.3c0,12,6.4,19.5,16.9,19.5c5.1,0,9.5-1.7,13.4-4.9l-3-4.7
		c-2.8,2.3-5.8,3.5-9.2,3.5c-3.4,0-6.2-1.3-8-3.9c-1.1-1.7-1.5-4.3-1.5-6.9v-0.6H299.6z M262.4,355.1v-50.6h-8V325h-18.4v-20.5h-7.8
		v50.6h7.8v-23.6h18.4v23.6H262.4z M590.9,332.8h-14c0.1-6.4,2.6-9.8,7.2-9.8C588.3,323,590.9,326.9,590.9,332.8 M403.6,337.5
		l-0.2,8.8c-1.6,2.6-4.3,4.2-7,4.2c-3.5,0-5.4-2.1-5.4-5.8c0-2.2,0.6-3.8,1.9-5c1.5-1.5,4.4-2.3,9.1-2.3
		C402.5,337.4,403,337.5,403.6,337.5 M291.5,332.8h-14.2c0.1-6.4,2.7-9.8,7.2-9.8C288.9,323,291.5,326.9,291.5,332.8"/>
	<path class="st0" d="M141.3,364.8v-78h-1.4c-1.7,13.4-4.4,24.9-7.7,34.4c-7.6,23-18.4,34.6-32.4,34.6c-14,0-24.8-11.5-32.6-34.6
		c-3.3-9.5-5.8-20.9-7.5-34.4h-1.4v78c12.5-3.7,26.3-5.5,41.5-5.5C114.8,359.2,128.7,361.1,141.3,364.8 M174.3,325.6
		c0,20.5-7.3,38.1-21.8,52.7c-14.5,14.6-32.1,21.8-52.7,21.8c-20.5,0-38.1-7.3-52.7-21.8c-14.6-14.6-21.9-32.1-21.9-52.7
		c0-20.5,7.3-38.1,21.9-52.8S79.3,251,99.8,251c20.5,0,38.1,7.3,52.7,21.9C167,287.5,174.3,305.1,174.3,325.6"/>
</g>
</svg>
